<svg width="389" height="353" viewBox="0 0 389 353" fill="none" xmlns="http://www.w3.org/2000/svg">
<mask id="mask0_2176_27387" style="mask-type:alpha" maskUnits="userSpaceOnUse" x="0" y="0" width="389" height="353">
<path d="M388.793 24.5C388.793 11.2452 378.048 0.5 364.793 0.5H24.793C11.5381 0.5 0.792969 11.2452 0.792969 24.5V336.392C0.792969 345.228 7.95642 352.392 16.793 352.392H372.793C381.63 352.392 388.793 345.228 388.793 336.392V24.5Z" fill="#0B72FF"/>
</mask>
<g mask="url(#mask0_2176_27387)">
<path opacity="0.05" d="M388.793 24.5C388.793 11.2452 378.048 0.5 364.793 0.5H24.793C11.5381 0.5 0.792969 11.2452 0.792969 24.5V336.392C0.792969 345.228 7.95642 352.392 16.793 352.392H372.793C381.63 352.392 388.793 345.228 388.793 336.392V24.5Z" fill="#2969FF"/>
<path opacity="0.1" d="M213.221 77.5183L199.922 66.4596C163.553 36.2181 109.884 39.7 77.7273 74.3872C51.1536 103.052 46.3887 145.699 65.9806 179.522L83.167 209.193C89.4878 220.105 87.4417 233.935 78.2321 242.55L69.6107 250.614C41.4387 276.966 35.6753 319.492 55.8173 352.392H324.539L333.456 343.24C353.676 322.488 356.178 290.251 339.402 266.628L316.631 234.563C313.571 230.253 312.341 224.907 313.21 219.693L336.291 81.2882C338.717 66.7422 325.103 54.6627 310.949 58.8026L232.961 81.6135C226.109 83.6174 218.71 82.0824 213.221 77.5183Z" fill="#2969FF"/>
<path d="M370.711 248.954L349.743 300.543" stroke="#151B32" stroke-linecap="round"/>
<path d="M371.183 267.145L361.847 270.861" stroke="#151B32" stroke-linecap="round"/>
<path d="M354.289 270.68L358.137 279.962" stroke="#151B32" stroke-linecap="round"/>
<path d="M358.203 290.982L352.168 294.49" stroke="#151B32" stroke-linecap="round"/>
<path d="M375.855 256.927C379.874 253.653 380.835 243.54 375.109 240.47C368.029 236.674 360.618 242.549 359.685 248.591C358.966 253.252 362.842 259.009 353.743 259.923C345.226 260.778 344.411 265.378 348.313 275.696C351.249 283.458 344.324 280.835 339.868 287.685C336.338 293.112 341.299 298.648 343.511 300.712L360.862 300.627C361.424 300.296 361.963 299.927 362.469 299.513C368.073 294.933 365.847 287.696 365.265 282.059C364.636 275.963 373.401 278.688 376.892 270.865C380.382 263.043 371.836 260.2 375.855 256.927Z" stroke="#2969FF" stroke-miterlimit="10"/>
<path d="M25.0625 238.954L46.0304 290.543" stroke="#151B32" stroke-linecap="round"/>
<path d="M24.5904 257.145L33.9263 260.861" stroke="#151B32" stroke-linecap="round"/>
<path d="M41.4845 260.68L37.6369 269.962" stroke="#151B32" stroke-linecap="round"/>
<path d="M37.5705 280.982L43.6051 284.49" stroke="#151B32" stroke-linecap="round"/>
<path d="M19.9184 246.927C15.8992 243.653 14.9385 233.54 20.6643 230.47C27.7443 226.674 35.1555 232.549 36.088 238.591C36.8074 243.252 32.9312 249.009 42.0302 249.923C50.5474 250.778 51.3622 255.378 47.4601 265.696C44.5245 273.458 51.4498 270.835 55.9055 277.685C59.4358 283.112 54.4748 288.648 52.2622 290.712L34.9114 290.627C34.3496 290.296 33.8107 289.927 33.3042 289.513C27.7008 284.933 29.9268 277.696 30.5081 272.059C31.1369 265.963 22.3727 268.688 18.8818 260.865C15.3915 253.043 23.9375 250.2 19.9184 246.927Z" stroke="#2969FF" stroke-miterlimit="10"/>
<path d="M123.122 281.801L121.362 300.6L111.107 302.249L110.473 282.491L123.122 281.801Z" fill="#D3D8EA"/>
<path d="M145.13 321.006L105.871 320.519L107.03 297.312L125.433 298.772L125.89 307.853L145.13 321.006Z" fill="#2969FF"/>
<path d="M133.294 310.807C132.569 312.37 131.845 313.934 131.121 315.497C131.019 315.717 130.916 315.939 130.813 316.159C130.699 316.405 130.744 316.701 130.994 316.847C131.211 316.974 131.568 316.914 131.682 316.667C132.406 315.104 133.13 313.54 133.855 311.977C133.957 311.757 134.059 311.536 134.162 311.315C134.276 311.069 134.231 310.773 133.982 310.627C133.765 310.5 133.409 310.56 133.294 310.807Z" fill="#151B32"/>
<path d="M129.707 308.792C128.983 310.355 128.259 311.919 127.534 313.481C127.432 313.702 127.33 313.923 127.228 314.144C127.113 314.39 127.158 314.685 127.408 314.832C127.625 314.959 127.982 314.899 128.096 314.652C128.82 313.089 129.545 311.525 130.269 309.962C130.371 309.742 130.473 309.52 130.576 309.3C130.69 309.054 130.645 308.758 130.395 308.612C130.178 308.485 129.822 308.545 129.707 308.792Z" fill="#151B32"/>
<path d="M127.555 308.69C128.962 308.138 130.341 307.492 131.673 306.779C132.717 306.219 133.738 305.606 134.672 304.875C135.412 304.297 136.181 303.597 136.509 302.691C136.817 301.839 136.484 301.004 135.873 300.377C135.289 299.78 134.465 299.59 133.674 299.85C132.819 300.13 132.097 300.75 131.475 301.381C130.712 302.157 130.046 303.032 129.424 303.924C128.528 305.209 127.703 306.558 126.986 307.951C126.691 308.526 127.558 309.035 127.855 308.459C128.383 307.432 128.978 306.434 129.603 305.463C130.581 303.94 131.71 302.213 133.231 301.192C133.554 300.975 133.792 300.854 134.13 300.766C134.341 300.711 134.617 300.733 134.776 300.809C135.059 300.943 135.251 301.153 135.433 301.444C135.552 301.631 135.568 301.647 135.614 301.837C135.634 301.923 135.63 302.075 135.619 302.135C135.486 302.847 134.814 303.462 134.226 303.95C133.422 304.616 132.514 305.163 131.603 305.67C130.63 306.211 129.629 306.701 128.614 307.155C128.272 307.308 127.898 307.469 127.669 307.564C127.542 307.617 127.414 307.67 127.286 307.72C126.692 307.954 126.952 308.928 127.555 308.69Z" fill="#151B32"/>
<path d="M129.321 298.353C128.546 301.239 127.771 304.125 126.996 307.012C126.885 307.424 126.775 307.837 126.664 308.249C126.496 308.875 127.466 309.143 127.634 308.516C128.409 305.631 129.184 302.745 129.959 299.858C130.07 299.445 130.18 299.032 130.291 298.619C130.459 297.994 129.489 297.727 129.321 298.353Z" fill="#151B32"/>
<path d="M113.553 320.614C114.142 319.546 114.465 318.314 114.419 317.008C114.283 313.156 111.039 310.134 107.187 310.27C106.913 310.279 106.644 310.309 106.38 310.349L106.355 310.831C106.633 310.785 106.915 310.749 107.203 310.74C110.795 310.612 113.822 313.432 113.949 317.024C113.995 318.332 113.647 319.562 113.018 320.607L113.553 320.614Z" fill="white"/>
<path d="M145.129 320.503C140.696 320.448 136.262 320.394 131.829 320.338C124.799 320.251 117.77 320.164 110.741 320.077C109.117 320.057 107.494 320.036 105.871 320.016C106.038 320.184 106.206 320.352 106.374 320.519C106.712 313.753 107.05 306.986 107.388 300.218C107.436 299.249 107.484 298.281 107.533 297.312C107.565 296.665 106.559 296.667 106.527 297.312C106.189 304.079 105.851 310.846 105.513 317.613C105.464 318.582 105.416 319.55 105.368 320.519C105.354 320.794 105.609 321.019 105.871 321.022C110.304 321.077 114.738 321.132 119.171 321.187C126.201 321.274 133.23 321.361 140.259 321.449C141.883 321.469 143.506 321.489 145.129 321.509C145.777 321.517 145.777 320.511 145.129 320.503Z" fill="#151B32"/>
<path d="M101.258 213.959L105.302 286.719H128.217C128.217 286.719 138.3 176.262 133.708 160.76C129.116 145.259 101.259 157.615 101.259 157.615V213.959H101.258Z" fill="#151B32"/>
<path d="M100.754 157.615C100.754 165.572 100.754 173.529 100.754 181.486C100.754 191.739 100.754 201.99 100.754 212.242C100.754 217.013 101.189 221.793 101.454 226.555C102.117 238.494 102.781 250.434 103.444 262.373C103.889 270.361 104.265 278.356 104.776 286.34C104.784 286.466 104.791 286.593 104.797 286.719C104.812 286.99 105.015 287.222 105.3 287.222C111.974 287.222 118.649 287.222 125.323 287.222C126.287 287.222 127.252 287.222 128.215 287.222C128.862 287.222 128.864 286.216 128.215 286.216C121.541 286.216 114.866 286.216 108.192 286.216C107.228 286.216 106.264 286.216 105.3 286.216C105.468 286.384 105.636 286.552 105.803 286.719C105.428 279.971 105.053 273.223 104.678 266.475C104.008 254.423 103.339 242.372 102.669 230.32C102.432 226.06 102.195 221.799 101.958 217.539C101.884 216.213 101.759 214.881 101.759 213.553C101.759 204.331 101.759 195.11 101.759 185.888C101.759 176.625 101.759 167.364 101.759 158.102C101.759 157.94 101.759 157.777 101.759 157.615C101.76 156.968 100.754 156.968 100.754 157.615Z" fill="white"/>
<path d="M61.2983 228.421L46.8789 216.231L51.3873 206.873L67.9628 217.647L61.2983 228.421Z" fill="#D3D8EA"/>
<path d="M16.5547 224.07L39.3946 192.135L57.7736 206.351L46.0567 220.617L38.3452 215.801L16.5547 224.07Z" fill="#2969FF"/>
<path d="M31.6615 220.147C30.7939 218.662 29.9271 217.177 29.0596 215.691C28.9356 215.479 28.8117 215.266 28.6869 215.053C28.361 214.495 27.491 215 27.8186 215.561C28.6861 217.047 29.5529 218.531 30.4205 220.017C30.5444 220.229 30.6683 220.442 30.7931 220.655C31.119 221.215 31.989 220.708 31.6615 220.147Z" fill="#151B32"/>
<path d="M35.3685 218.355C34.5009 216.869 33.6342 215.385 32.7666 213.899C32.6427 213.687 32.5187 213.474 32.394 213.261C32.068 212.702 31.1981 213.208 31.5256 213.769C32.3932 215.254 33.2599 216.739 34.1275 218.225C34.2514 218.437 34.3754 218.65 34.5001 218.863C34.8261 219.422 35.696 218.916 35.3685 218.355Z" fill="#151B32"/>
<path d="M36.6926 216.724C36.345 218.181 36.0987 219.67 35.9225 221.156C35.7848 222.319 35.6939 223.499 35.7607 224.67C35.8122 225.581 35.9313 226.605 36.4512 227.384C37.4355 228.858 39.8313 228.509 40.4245 226.87C40.7279 226.033 40.6281 225.08 40.4824 224.222C40.2997 223.143 39.9657 222.092 39.5891 221.067C39.0297 219.544 38.3722 218.039 37.6125 216.605C37.3091 216.032 36.4407 216.54 36.7441 217.112C37.2834 218.131 37.7646 219.187 38.2 220.253C38.8905 221.944 39.6607 223.861 39.6092 225.72C39.5931 226.293 39.4635 226.919 38.9621 227.165C38.4398 227.423 37.7091 227.371 37.3566 226.927C36.8946 226.344 36.8142 225.436 36.7707 224.718C36.7063 223.67 36.7739 222.615 36.8834 221.573C37.0451 220.035 37.3051 218.496 37.6648 216.992C37.8129 216.362 36.8431 216.094 36.6926 216.724Z" fill="#151B32"/>
<path d="M44.142 224.013C42.2161 221.726 40.2902 219.44 38.3636 217.153C38.0891 216.828 37.8147 216.502 37.5403 216.176C37.1226 215.68 36.4144 216.395 36.8288 216.887C38.7547 219.173 40.6805 221.46 42.6072 223.746C42.8816 224.072 43.1561 224.398 43.4305 224.724C43.8482 225.22 44.5564 224.505 44.142 224.013Z" fill="#151B32"/>
<path d="M34.9258 198.383C35.4658 199.477 36.2915 200.446 37.3892 201.155C40.6277 203.245 44.9623 202.311 47.0524 199.072C47.2012 198.842 47.33 198.605 47.4483 198.365L47.066 198.07C46.9453 198.324 46.8133 198.575 46.6572 198.818C44.708 201.839 40.6647 202.71 37.6444 200.761C36.545 200.051 35.7346 199.063 35.2372 197.949L34.9258 198.383Z" fill="white"/>
<path d="M16.9855 224.324C19.5648 220.718 22.1442 217.112 24.7235 213.505C28.8135 207.787 32.9026 202.069 36.9917 196.351C37.9358 195.03 38.8806 193.709 39.8246 192.389C39.5614 192.422 39.2983 192.456 39.0343 192.491C44.3934 196.636 49.7525 200.781 55.1124 204.926C55.8794 205.52 56.6471 206.114 57.4141 206.707C57.9203 207.098 58.6374 206.391 58.1255 205.995C52.7664 201.85 47.4073 197.705 42.0474 193.56C41.2805 192.966 40.5127 192.373 39.7457 191.779C39.4737 191.569 39.1614 191.594 38.9554 191.881C36.3761 195.487 33.7967 199.093 31.2182 202.7C27.1282 208.418 23.0391 214.136 18.9491 219.855C18.0043 221.175 17.0603 222.496 16.1155 223.816C15.7396 224.344 16.612 224.847 16.9855 224.324Z" fill="#151B32"/>
<path d="M127.373 165.948L113.613 167.051L113.635 167.175L91.7593 166.911L79.2021 215.831L65.7283 211.734L55.9453 229.089C65.7275 245.625 90.4732 256.69 102.336 236.294C109.245 224.415 115.365 202.971 119.273 187.131L124.565 184.237L127.373 165.948Z" fill="#151B32"/>
<path d="M122.868 184.739C121.738 185.217 120.593 185.67 119.475 186.175C119.016 186.383 118.91 186.523 118.812 186.977C118.427 188.765 118.096 190.563 117.696 192.348C115.943 200.171 113.774 207.914 111.111 215.477C109.425 220.265 107.533 224.985 105.326 229.559C103.288 233.783 101.12 238.187 97.7051 241.484C92.0732 246.921 84.2023 247.823 76.956 245.469C68.4421 242.703 61.0219 236.286 56.4918 228.633C56.4918 228.802 56.4918 228.972 56.4918 229.141C59.3118 224.139 62.1309 219.136 64.9509 214.133C65.3541 213.419 65.7565 212.703 66.1597 211.989C65.9706 212.066 65.7815 212.142 65.5915 212.22C70.0831 213.585 74.5746 214.95 79.0653 216.316C79.6858 216.504 79.9514 215.534 79.3325 215.346C74.841 213.98 70.3495 212.616 65.8587 211.25C65.6495 211.186 65.3976 211.291 65.2905 211.481C62.4706 216.483 59.6514 221.486 56.8314 226.489C56.4282 227.203 56.0258 227.919 55.6226 228.633C55.5341 228.79 55.53 228.985 55.6226 229.141C59.7158 236.055 66.0462 241.866 73.3932 245.16C80.1228 248.179 88.0766 248.973 94.642 245.087C98.3288 242.905 101.047 239.576 103.145 235.894C105.681 231.441 107.823 226.77 109.727 222.015C113.09 213.617 115.718 204.922 117.847 196.133C118.462 193.589 119.036 191.037 119.546 188.47C119.606 188.171 119.949 187.282 119.831 186.986C119.826 186.972 119.857 186.912 119.846 186.902C120.007 187.059 119.343 187.258 119.984 187.043C120.68 186.808 121.358 186.461 122.035 186.175C122.482 185.986 122.929 185.797 123.376 185.608C123.969 185.356 123.458 184.49 122.868 184.739Z" fill="white"/>
<path d="M76.5816 228.067C78.3562 221.156 80.13 214.244 81.9037 207.333C84.7084 196.406 87.5131 185.479 90.3178 174.552C90.96 172.049 91.6023 169.547 92.2453 167.044C92.4062 166.416 91.4365 166.149 91.2755 166.777C89.5017 173.688 87.7272 180.6 85.9534 187.511C83.1487 198.438 80.344 209.365 77.5393 220.292C76.8971 222.794 76.2549 225.297 75.6119 227.8C75.4501 228.427 76.4199 228.695 76.5816 228.067Z" fill="white"/>
<path d="M91.0346 186.146C94.4558 187.209 98.3936 186.976 101.429 184.952C104.12 183.158 105.911 180.101 105.897 176.841C105.893 176.194 104.888 176.192 104.891 176.841C104.904 179.813 103.234 182.615 100.744 184.199C97.943 185.98 94.4164 186.143 91.3026 185.175C90.6821 184.983 90.4174 185.954 91.0346 186.146Z" fill="white"/>
<path d="M37.0161 76.7073C37.0161 76.7073 25.6155 56.9135 24.5515 52.9387C23.4884 48.9638 26.3084 48.6974 27.4721 51.5045C27.4721 51.5045 26.2287 48.897 27.0504 48.1123C27.8721 47.3277 29.4334 48.9107 30.4531 51.2341C30.4531 51.2341 28.0797 47.2391 29.1348 46.3506C30.1899 45.4613 31.7938 47.4926 32.9117 49.9947C32.9117 49.9947 30.8828 45.8992 32.1447 45.0453C33.4066 44.1914 36.155 47.1852 38.8993 54.1458C38.8993 54.1458 37.4427 48.1252 39.0643 47.594C40.686 47.0629 42.9402 56.0435 44.161 59.5178C45.3819 62.9921 49.6344 71.436 49.6344 71.436L37.0161 76.7073Z" fill="#D3D8EA"/>
<path d="M26.8496 51.0337C27.7534 53.3804 28.7159 55.7047 29.734 58.0047C29.8909 58.3597 30.4108 58.0522 30.2555 57.7005C29.2584 55.4487 28.3168 53.172 27.4315 50.8735C27.2939 50.5138 26.7096 50.6699 26.8496 51.0337Z" fill="#151B32"/>
<path d="M29.4315 50.0188C30.4213 52.0678 31.4104 54.1168 32.4003 56.1666C32.5428 56.4603 32.6844 56.7549 32.8261 57.0486C32.9951 57.3987 33.5158 57.0929 33.3476 56.7444C32.3577 54.6954 31.3686 52.6464 30.3787 50.5966C30.2371 50.3021 30.0946 50.0083 29.953 49.7146C29.784 49.3645 29.2633 49.6703 29.4315 50.0188Z" fill="#151B32"/>
<path d="M31.8478 48.4969C33.0912 50.9644 34.1825 53.5027 35.1153 56.103C35.2456 56.4659 35.8291 56.309 35.6971 55.9428C34.7467 53.2943 33.6353 50.7052 32.3685 48.1919C32.1939 47.845 31.6732 48.15 31.8478 48.4969Z" fill="#151B32"/>
<path d="M36.8302 59.991C36.6958 59.4124 36.7111 58.816 36.8826 58.2463C37.0661 57.6362 37.4379 57.1686 37.8411 56.6898C38.5823 55.8093 39.1947 54.7696 39.1569 53.5825C39.1448 53.1954 38.5412 53.193 38.5533 53.5825C38.596 54.9321 37.6978 55.8431 36.9381 56.8419C36.2194 57.7867 35.9788 58.9995 36.2476 60.152C36.3361 60.5294 36.9188 60.3701 36.8302 59.991Z" fill="#151B32"/>
<path d="M111.393 110.031C111.393 110.031 84.2374 105.446 71.3214 92.7952C56.2798 78.0627 51.3368 68.8752 51.3368 68.8752L34.293 76.6246C34.293 76.6246 44.2072 135.272 96.8099 142.873L114.869 112.921L111.393 110.031Z" fill="#2969FF"/>
<path d="M35.946 83.4975L54.9672 74.339C52.3838 70.8172 51.3368 68.8752 51.3368 68.8752L34.293 76.6246C34.293 76.6246 34.742 79.2683 35.946 83.4975Z" fill="#151B32"/>
<path d="M57.4561 123.292C65.3149 131.4 74.9908 137.543 85.7895 140.909C89.3467 142.018 92.9908 142.817 96.6751 143.358C96.9029 143.391 97.1177 143.334 97.2433 143.127C99.2826 139.744 101.323 136.361 103.362 132.979C106.594 127.618 109.827 122.257 113.059 116.896C113.807 115.656 114.554 114.416 115.303 113.175C115.409 112.999 115.392 112.705 115.224 112.566C114.468 111.938 113.713 111.31 112.958 110.681C112.521 110.318 112.027 109.741 111.486 109.539C110.601 109.21 109.497 109.161 108.574 108.963C103.336 107.84 98.1591 106.384 93.1171 104.575C86.5758 102.229 80.0441 99.2671 74.5482 94.951C71.1448 92.2783 68.1759 89.002 65.2376 85.8384C62.6631 83.0667 60.1747 80.2129 57.8207 77.2512C55.6582 74.5294 53.4281 71.6942 51.7694 68.6215C51.462 68.0517 50.5928 68.5587 50.9011 69.1293C52.2362 71.604 53.9802 73.9017 55.6807 76.1294C57.7321 78.8157 59.9002 81.4112 62.148 83.9358C65.232 87.3996 68.4157 90.8659 71.8498 93.9869C76.9272 98.5999 83.2142 101.77 89.5415 104.294C95.0197 106.48 100.695 108.185 106.439 109.516C107.904 109.856 109.485 110.362 110.992 110.469C111.078 110.475 111.167 110.5 111.252 110.515C110.947 110.462 111.053 110.371 111.24 110.556C111.438 110.752 111.679 110.921 111.893 111.098C112.766 111.824 113.639 112.551 114.512 113.277C114.486 113.074 114.46 112.87 114.434 112.668C112.394 116.05 110.354 119.433 108.315 122.816C105.083 128.177 101.85 133.538 98.6179 138.899C97.8702 140.139 97.1226 141.379 96.3741 142.62C96.5632 142.542 96.7524 142.466 96.9423 142.389C85.1562 140.657 73.9792 136.029 64.6791 128.541C62.3846 126.694 60.2165 124.696 58.1667 122.581C57.716 122.115 57.0046 122.827 57.4561 123.292Z" fill="#151B32"/>
<path d="M147.86 77.5436L150.142 65.3309C150.142 65.3309 147.003 58.4258 146.377 56.3229C145.75 54.2192 146.588 52.5919 148.484 54.0494C149.625 54.9266 151.014 56.9732 151.791 58.8886C152.106 57.7517 152.419 56.2687 152.676 54.9276C152.969 53.4051 154.796 52.7212 155.99 53.7103L162.299 58.9379C162.592 59.1811 162.814 59.5 162.912 59.8682C165.039 67.8021 160.354 81.4935 160.354 81.4935L147.86 77.5436Z" fill="#D3D8EA"/>
<path d="M162.279 80.8457L146.173 76.3525L133.73 104.655L135.217 101.273L111.375 114.207C111.375 114.207 118.499 146.305 126.813 143.248C135.128 140.192 150.703 128.649 155.678 117.509C161.54 104.381 162.279 80.8457 162.279 80.8457Z" fill="#2969FF"/>
<path d="M146.175 76.3525L143.855 81.6279L161.88 87.3371C162.281 83.4395 162.281 80.8457 162.281 80.8457L146.175 76.3525Z" fill="#151B32"/>
<path d="M145.74 76.0981C142.109 84.3553 138.479 92.6132 134.849 100.87C134.332 102.047 133.815 103.224 133.298 104.4C133.039 104.988 133.906 105.5 134.166 104.908C137.796 96.6508 141.427 88.3929 145.056 80.1357C145.574 78.9591 146.09 77.7825 146.608 76.6059C146.866 76.0184 146 75.5066 145.74 76.0981Z" fill="#151B32"/>
<path d="M134.962 100.838C128.013 104.608 121.064 108.377 114.115 112.147C113.116 112.689 112.118 113.23 111.12 113.772C110.917 113.881 110.841 114.126 110.889 114.34C112.209 120.275 113.952 126.193 116.192 131.844C117.569 135.317 119.136 139.043 121.713 141.817C122.567 142.736 123.633 143.602 124.889 143.869C126.552 144.222 128.192 143.274 129.637 142.575C136.681 139.17 143.167 134.102 148.542 128.45C148.988 127.981 148.278 127.268 147.831 127.738C143.033 132.783 137.414 137.191 131.32 140.567C130.156 141.212 128.967 141.82 127.742 142.341C127.069 142.628 126.362 142.971 125.613 142.95C124.445 142.917 123.442 142.143 122.655 141.347C120.12 138.783 118.591 135.143 117.27 131.85C115.791 128.163 114.586 124.367 113.514 120.543C112.913 118.401 112.341 116.245 111.858 114.073C111.78 114.262 111.704 114.452 111.627 114.641C118.575 110.871 125.525 107.102 132.473 103.332C133.472 102.791 134.47 102.249 135.469 101.707C136.038 101.398 135.531 100.529 134.962 100.838Z" fill="#151B32"/>
<path d="M94.6187 124.383C88.3453 138.707 85.5664 176.429 85.5664 176.429C116.741 181.386 138.078 175.447 138.078 175.447C138.078 175.447 138.188 155.46 133.642 137.578C127.237 112.376 115.76 106.929 115.76 106.929L94.6187 124.383Z" fill="#2969FF"/>
<path d="M115.505 107.363C116.701 107.935 117.774 108.864 118.744 109.746C121.722 112.456 124.094 115.796 126.071 119.286C129.59 125.504 131.899 132.364 133.545 139.294C135.378 147.004 136.42 154.896 137.029 162.791C137.352 166.995 137.595 171.228 137.574 175.448C137.697 175.286 137.821 175.124 137.944 174.963C135.018 175.775 131.971 176.243 128.97 176.662C121 177.776 112.913 178.088 104.876 177.805C98.4518 177.579 92.0481 176.945 85.6999 175.944C85.823 176.105 85.9462 176.267 86.0693 176.429C86.4017 171.93 86.8612 167.438 87.3666 162.956C88.3533 154.209 89.5476 145.453 91.4332 136.849C92.3386 132.719 93.3615 128.527 95.0524 124.637C95.3083 124.049 94.4415 123.536 94.184 124.129C92.7145 127.51 91.7391 131.093 90.8964 134.674C89.8567 139.092 89.0511 143.566 88.3469 148.049C87.1236 155.834 86.2069 163.671 85.4818 171.518C85.3305 173.153 85.184 174.79 85.0633 176.428C85.0488 176.626 85.2283 176.881 85.4327 176.913C101.755 179.489 118.871 179.927 135.139 176.635C136.167 176.427 137.2 176.212 138.212 175.932C138.426 175.873 138.58 175.668 138.581 175.447C138.599 171.879 138.414 168.301 138.175 164.743C137.656 157.005 136.728 149.268 135.113 141.68C133.558 134.371 131.325 127.123 127.862 120.478C125.834 116.585 123.354 112.837 120.211 109.748C118.986 108.545 117.585 107.244 116.014 106.494C115.432 106.217 114.921 107.084 115.505 107.363Z" fill="#151B32"/>
<path d="M119.511 110.279C119.511 113.261 115.641 115.677 110.867 115.677C106.093 115.677 102.223 113.261 102.223 110.279C102.223 107.297 106.093 104.88 110.867 104.88C115.641 104.88 119.511 107.297 119.511 110.279Z" fill="white"/>
<path d="M119.009 110.279C118.938 112.962 115.897 114.375 113.649 114.878C110.734 115.53 107.238 115.219 104.729 113.479C102.67 112.05 102.024 109.613 103.926 107.741C106.038 105.663 109.474 105.16 112.298 105.457C114.887 105.729 118.926 107.113 119.009 110.279C119.026 110.925 120.032 110.928 120.015 110.279C119.932 107.158 116.74 105.376 114.047 104.74C110.676 103.942 106.558 104.34 103.767 106.546C101.557 108.294 101.034 111.155 103.003 113.31C105.323 115.85 109.392 116.481 112.643 116.065C115.729 115.671 119.919 113.941 120.015 110.279C120.032 109.632 119.026 109.632 119.009 110.279Z" fill="#151B32"/>
<path d="M104.109 94.9114L104.629 101.147L104.662 101.543L105.255 108.644C105.469 111.221 107.753 113.154 110.33 112.939L113.316 112.69C115.893 112.475 117.825 110.191 117.611 107.614L117.087 101.33L104.109 94.9114Z" fill="white"/>
<path d="M125.196 94.6009L124.308 85.1535C123.875 80.5404 120.205 77.0774 116.154 77.4581L110.059 78.0311C106.007 78.4117 103.046 82.4976 103.48 87.1115L104.367 96.559C104.392 96.8253 104.431 97.0869 104.477 97.3452C104.437 97.6301 104.426 97.9223 104.453 98.22L104.853 102.466L115.19 105.05L115.093 104.013L118.617 103.682C122.669 103.301 125.63 99.2147 125.196 94.6009Z" fill="white"/>
<path d="M104.645 91.756C104.645 91.756 105.275 83.667 105.757 84.8074C106.443 86.4347 107.254 95.7268 109.131 96.3739C111.616 97.2302 112.111 93.0686 116.896 92.4537C121.682 91.8389 124.664 93.9402 125.311 95.8178C125.958 97.6961 124.982 101.26 122.631 102.955C120.056 104.812 115.159 104.719 115.159 104.719C115.159 104.719 110.368 104.747 108.117 102.13C105.775 99.4071 104.645 91.756 104.645 91.756Z" fill="#151B32"/>
<path d="M112.405 89.3859C112.476 90.1448 113.148 90.7018 113.907 90.6309C114.666 90.5593 115.223 89.8865 115.152 89.1276C115.081 88.3695 114.409 87.8118 113.65 87.8834C112.891 87.955 112.333 88.6278 112.405 89.3859Z" fill="#151B32"/>
<path d="M121.376 88.3399C121.437 88.9877 122.011 89.4634 122.659 89.4022C123.307 89.341 123.783 88.7672 123.721 88.1194C123.66 87.4715 123.086 86.9959 122.439 87.0571C121.792 87.1182 121.316 87.6928 121.376 88.3399Z" fill="#151B32"/>
<path d="M120.595 94.0842C120.595 94.0842 120.093 96.1606 118.647 96.4358C117.2 96.7111 115.904 95.2013 115.707 93.9458L120.595 94.0842Z" fill="white"/>
<path d="M118.548 87.7183C119.071 88.833 119.714 89.8864 120.466 90.861C120.526 90.713 120.586 90.5657 120.646 90.4176C120.145 90.5142 119.643 90.6107 119.142 90.7065C118.982 90.7371 118.89 90.9294 118.931 91.0775C118.977 91.2449 119.142 91.319 119.302 91.2884C119.803 91.1926 120.305 91.096 120.806 90.9995C120.982 90.9657 121.102 90.7049 120.987 90.556C120.234 89.5814 119.592 88.5279 119.069 87.4133C118.999 87.266 118.787 87.2282 118.656 87.3047C118.505 87.394 118.479 87.5702 118.548 87.7183Z" fill="#151B32"/>
<path d="M111.997 87.9495C112.205 87.8183 112.42 87.6984 112.641 87.5905C112.693 87.5656 112.745 87.5406 112.797 87.5173C112.826 87.5036 112.856 87.4907 112.887 87.4771C112.902 87.4706 112.917 87.4642 112.932 87.4577C112.897 87.4722 112.896 87.473 112.928 87.4593C113.041 87.4127 113.156 87.3684 113.272 87.3282C113.421 87.2759 113.535 87.1197 113.483 86.9572C113.436 86.8107 113.271 86.69 113.112 86.7463C112.616 86.9209 112.138 87.1479 111.693 87.428C111.56 87.5117 111.494 87.7008 111.585 87.8408C111.671 87.9744 111.854 88.0388 111.997 87.9495Z" fill="#151B32"/>
<path d="M121.673 86.4485C122.154 86.4276 122.637 86.4381 123.117 86.4783C123.275 86.492 123.425 86.3302 123.419 86.1765C123.411 86.0019 123.286 85.8892 123.117 85.8747C122.636 85.8337 122.154 85.824 121.673 85.8449C121.515 85.8514 121.364 85.9785 121.371 86.1467C121.378 86.3045 121.504 86.4558 121.673 86.4485Z" fill="#151B32"/>
<path d="M105.68 93.3519L106.11 85.8456C106.11 85.8456 126.186 87.7683 131.769 77.1362C136.952 67.2671 129.641 62.6009 125.975 64.373C122.881 65.8683 120.75 69.036 120.75 69.036C120.75 69.036 123.49 64.4664 120.285 64.0865C117.081 63.7067 113.917 67.2952 112.426 70.8395C112.426 70.8395 98.8118 70.8492 95.0173 79.4443C91.2227 88.0395 95.4639 93.4855 104.602 101.138L104.919 96.3481L105.68 93.3519Z" fill="#151B32"/>
<path d="M96.6745 94.8216C96.9585 97.269 99.1902 99.021 101.658 98.7345C104.125 98.448 105.896 96.2316 105.611 93.7834C105.327 91.336 103.096 89.584 100.628 89.8705C98.1609 90.157 96.3904 92.3742 96.6745 94.8216Z" fill="white"/>
<path d="M103.889 94.6219C103.831 93.5016 103.181 92.3507 102.073 91.9982C101.5 91.8164 100.88 91.8622 100.302 91.991C99.9234 92.0755 100.084 92.6574 100.463 92.5729C100.912 92.4731 101.383 92.4401 101.795 92.5471C102.124 92.6316 102.373 92.7749 102.602 93.005C102.654 93.0582 102.702 93.1137 102.75 93.1708C102.801 93.2312 102.726 93.1378 102.755 93.1765C102.767 93.1926 102.779 93.2087 102.79 93.2247C102.813 93.2569 102.835 93.2899 102.857 93.3237C102.935 93.4461 103.001 93.574 103.06 93.706C103.081 93.7559 103.058 93.702 103.055 93.6939C103.063 93.7141 103.071 93.7334 103.078 93.7535C103.089 93.7792 103.098 93.8058 103.107 93.8316C103.13 93.8943 103.15 93.9571 103.169 94.0207C103.2 94.1253 103.225 94.2315 103.247 94.3386C103.257 94.3877 103.265 94.4376 103.273 94.4867C103.29 94.5913 103.267 94.4174 103.278 94.5205C103.281 94.5535 103.285 94.5865 103.287 94.6195C103.306 95.0082 103.91 95.0106 103.889 94.6219Z" fill="#151B32"/>
<path d="M240.015 73.0358L237.45 65.742C237.45 65.742 238.869 58.3681 238.984 56.1983C239.099 54.0285 237.916 52.6555 236.428 54.4988C235.534 55.6074 234.671 57.9001 234.368 59.9237C233.416 57.0729 233.156 55.6074 233.156 55.6074L223.781 63.2573C223.833 69.7014 229.393 79.3781 229.393 79.3781L240.015 73.0358Z" fill="#D3D8EA"/>
<path d="M242.111 69.7146C242.111 69.7146 263.793 101.675 286.368 108.865L274.669 133.606C274.669 133.606 242.507 119.155 232.951 95.1723L226.473 79.3664L242.111 69.7146Z" fill="#2969FF"/>
<path d="M241.692 69.9594C244.374 73.9095 247.381 77.666 250.458 81.3114C256.766 88.7856 263.719 95.8734 271.667 101.613C276.133 104.838 280.977 107.637 286.24 109.333C286.142 109.095 286.046 108.857 285.949 108.619C282.539 115.83 279.129 123.041 275.719 130.251C275.23 131.288 274.739 132.324 274.249 133.36C274.471 133.302 274.692 133.244 274.914 133.186C267.708 129.943 260.854 125.528 254.615 120.718C249.073 116.444 243.883 111.582 239.679 105.968C237.531 103.1 235.64 100.029 234.155 96.7643C233.467 95.2522 232.868 93.6943 232.237 92.1573C230.472 87.8504 228.707 83.5442 226.941 79.2372C226.867 79.4199 226.793 79.6034 226.718 79.7861C231.275 76.9733 235.833 74.1614 240.39 71.3487C241.046 70.9436 241.701 70.5394 242.358 70.1343C242.889 69.8062 242.401 68.9658 241.867 69.2955C237.31 72.1082 232.753 74.9202 228.195 77.7329C227.539 78.1379 226.884 78.5422 226.228 78.9472C226.063 79.0491 225.923 79.2971 226.004 79.4961C227.582 83.3451 229.16 87.1942 230.737 91.044C232.641 95.6899 234.533 100.243 237.383 104.423C244.688 115.134 255.401 123.386 266.512 129.849C269.083 131.345 271.708 132.804 274.423 134.026C274.646 134.127 274.967 134.109 275.088 133.852C278.498 126.642 281.908 119.431 285.318 112.22C285.807 111.184 286.298 110.148 286.788 109.111C286.925 108.821 286.815 108.5 286.497 108.398C277.036 105.349 268.887 98.8307 261.806 92.0446C255.841 86.3289 250.39 80.0535 245.421 73.457C244.433 72.1471 243.453 70.827 242.531 69.4696C242.182 68.955 241.34 69.4401 241.692 69.9594Z" fill="#151B32"/>
<path d="M354.166 218.746L336.251 227.923L331.75 215.588L350.084 208.039L354.166 218.746Z" fill="#D3D8EA"/>
<path d="M383.93 231.451L366.377 195.272L345.371 206.456L354.741 222.879L363.357 219.347L383.93 231.451Z" fill="#2969FF"/>
<path d="M384.352 231.205C382.37 227.121 380.389 223.037 378.408 218.954C375.264 212.476 372.121 205.998 368.978 199.519C368.251 198.022 367.525 196.525 366.798 195.027C366.681 194.784 366.35 194.737 366.134 194.853C360 198.118 353.867 201.384 347.733 204.649C346.864 205.111 345.996 205.574 345.127 206.036C344.894 206.16 344.827 206.48 344.953 206.701C347.681 211.482 350.408 216.263 353.136 221.044C353.532 221.738 353.927 222.43 354.323 223.124C354.418 223.292 354.677 223.427 354.872 223.347C357.103 222.432 359.334 221.518 361.566 220.602C362.056 220.402 362.546 220.201 363.035 220C363.103 219.972 363.372 219.91 363.411 219.846C363.506 219.689 363.142 219.76 363.142 219.782C363.14 219.918 364.352 220.494 364.471 220.564C369.372 223.447 374.272 226.331 379.173 229.213C380.677 230.099 382.182 230.983 383.686 231.869C384.227 232.187 384.716 231.347 384.177 231.03C380.249 228.72 376.322 226.408 372.393 224.098C370.04 222.713 367.687 221.329 365.334 219.944C364.803 219.631 364.266 219.233 363.703 218.985C363.202 218.765 362.808 219.05 362.321 219.25C359.752 220.303 357.183 221.356 354.614 222.409C354.796 222.484 354.98 222.558 355.162 222.632C352.434 217.851 349.706 213.07 346.979 208.289C346.584 207.595 346.189 206.903 345.793 206.209C345.735 206.431 345.677 206.652 345.619 206.874C351.753 203.609 357.886 200.343 364.02 197.078C364.888 196.615 365.756 196.152 366.625 195.691C366.403 195.632 366.182 195.574 365.96 195.516C367.941 199.6 369.923 203.684 371.904 207.767C375.048 214.245 378.191 220.724 381.334 227.202C382.06 228.699 382.787 230.197 383.514 231.695C383.786 232.258 384.624 231.766 384.352 231.205Z" fill="#151B32"/>
<path d="M369.953 225.423C371.087 224.07 372.221 222.717 373.356 221.364C373.515 221.174 373.674 220.983 373.835 220.794C374.074 220.508 373.664 220.093 373.423 220.382C372.288 221.735 371.154 223.088 370.02 224.441C369.86 224.632 369.701 224.822 369.542 225.012C369.301 225.297 369.712 225.711 369.953 225.423Z" fill="#151B32"/>
<path d="M366.524 222.975C367.658 221.622 368.792 220.269 369.926 218.916C370.086 218.726 370.245 218.535 370.405 218.346C370.644 218.06 370.234 217.645 369.993 217.934C368.858 219.287 367.724 220.64 366.59 221.993C366.43 222.184 366.271 222.374 366.112 222.564C365.872 222.849 366.282 223.263 366.524 222.975Z" fill="#151B32"/>
<path d="M364.06 220.614C364.146 221.917 364.149 223.23 364.103 224.534C364.064 225.626 363.986 226.721 363.802 227.798C363.647 228.705 363.445 229.679 362.946 230.468C362.531 231.126 361.967 231.345 361.214 231.147C360.525 230.967 360.15 230.466 360.114 229.762C360.071 228.908 360.375 228.039 360.69 227.258C361.087 226.275 361.597 225.336 362.138 224.425C362.887 223.161 363.707 221.927 364.604 220.761C364.833 220.464 364.327 220.174 364.101 220.467C363.253 221.568 362.476 222.734 361.758 223.923C361.175 224.89 360.633 225.887 360.199 226.93C359.839 227.794 359.504 228.746 359.529 229.696C359.548 230.444 359.851 231.145 360.535 231.509C361.206 231.868 362.119 231.958 362.767 231.512C363.475 231.024 363.822 230.125 364.056 229.333C364.373 228.255 364.512 227.123 364.603 226.006C364.748 224.219 364.762 222.404 364.645 220.614C364.618 220.242 364.035 220.239 364.06 220.614Z" fill="#151B32"/>
<path d="M356.587 227.263C358.926 225.287 361.264 223.311 363.604 221.335C363.937 221.053 364.271 220.771 364.604 220.489C364.89 220.247 364.476 219.836 364.191 220.077C361.853 222.054 359.514 224.03 357.175 226.007C356.842 226.288 356.509 226.57 356.175 226.852C355.888 227.094 356.302 227.504 356.587 227.263Z" fill="#151B32"/>
<path d="M357.465 200.018C359.598 203.961 364.474 205.561 368.54 203.575C369.057 203.323 369.536 203.024 369.976 202.687L366.379 195.272L357.465 200.018Z" fill="#2969FF"/>
<path d="M357.045 200.263C359.655 204.971 365.899 206.336 370.22 203.106C370.444 202.94 370.521 202.701 370.395 202.442C369.196 199.97 367.996 197.499 366.797 195.027C366.68 194.785 366.35 194.737 366.133 194.853C363.161 196.435 360.19 198.017 357.219 199.599C356.667 199.893 357.157 200.732 357.709 200.438C360.681 198.855 363.652 197.274 366.623 195.692C366.402 195.634 366.18 195.575 365.959 195.518C367.157 197.989 368.357 200.461 369.556 202.932C369.614 202.711 369.672 202.489 369.73 202.268C365.825 205.186 360.26 204.059 357.883 199.773C357.58 199.226 356.741 199.715 357.045 200.263Z" fill="#151B32"/>
<path d="M315.432 236.985C315.432 236.985 309.629 235.253 303.021 224.867C296.414 214.48 275.574 185.38 275.574 185.38L308.896 156.414L323.93 210.679L334.068 211.856L339.901 229.48C339.901 229.48 321.491 240.913 315.432 236.985Z" fill="#151B32"/>
<path d="M333.604 211.984C335.303 217.117 337.001 222.251 338.701 227.384C338.947 228.126 339.192 228.866 339.437 229.608C339.512 229.425 339.586 229.242 339.66 229.059C335.258 231.79 330.512 234.211 325.614 235.901C322.908 236.834 319.423 237.976 316.576 236.996C315.097 236.487 313.641 235.629 312.371 234.71C308.597 231.977 305.715 228.162 303.226 224.277C301.566 221.685 299.837 219.136 298.101 216.594C293.656 210.082 289.122 203.63 284.572 197.192C281.773 193.234 279.054 189.191 276.134 185.32C276.088 185.259 276.044 185.195 275.999 185.133C275.638 184.629 274.795 185.114 275.16 185.624C277.607 189.04 280.039 192.465 282.467 195.894C287.098 202.433 291.709 208.986 296.242 215.593C298.132 218.349 300.016 221.112 301.838 223.915C304.327 227.745 306.943 231.497 310.475 234.451C311.982 235.712 313.546 236.61 315.296 237.448C317.831 238.664 320.565 238.33 323.257 237.634C329.09 236.127 334.673 233.208 339.81 230.106C339.924 230.037 340.037 229.969 340.151 229.899C340.327 229.79 340.442 229.556 340.374 229.35C338.675 224.217 336.977 219.083 335.277 213.95C335.031 213.208 334.787 212.467 334.541 211.726C334.346 211.135 333.407 211.388 333.604 211.984Z" fill="#2969FF"/>
<path d="M283.665 284.713L281.219 254.736L295.593 254.07L295.425 283.692L283.665 284.713Z" fill="#D3D8EA"/>
<path d="M280.185 293.125L277.627 297.703L266.043 317.457L302.541 299.141L301.428 274.949L279.017 278.285L278.675 295.827" fill="#2969FF"/>
<path d="M279.767 292.879C275.864 299.865 271.767 306.739 267.719 313.641C267.02 314.832 266.323 316.022 265.625 317.211C265.368 317.65 265.869 318.087 266.29 317.876C270.412 315.807 274.534 313.739 278.656 311.67C285.194 308.389 291.73 305.108 298.267 301.828C299.773 301.072 301.28 300.316 302.787 299.56C302.931 299.487 303.035 299.301 303.028 299.14C302.703 292.069 302.377 284.998 302.052 277.926C302.006 276.934 301.961 275.94 301.915 274.947C301.9 274.603 301.619 274.431 301.3 274.478C294.756 275.453 288.212 276.427 281.666 277.402C280.74 277.539 279.815 277.678 278.889 277.815C278.679 277.846 278.536 278.089 278.533 278.284C278.433 283.403 278.334 288.522 278.234 293.64C278.22 294.368 278.206 295.097 278.191 295.824C278.179 296.45 279.151 296.45 279.163 295.824C279.263 290.705 279.362 285.586 279.462 280.467C279.476 279.739 279.49 279.011 279.504 278.283C279.385 278.439 279.266 278.596 279.148 278.752C285.692 277.778 292.236 276.803 298.782 275.829C299.707 275.691 300.633 275.553 301.558 275.415C301.353 275.259 301.149 275.103 300.944 274.946C301.268 282.018 301.594 289.089 301.919 296.16C301.965 297.153 302.011 298.146 302.056 299.139C302.136 298.999 302.216 298.859 302.297 298.719C298.175 300.788 294.052 302.857 289.93 304.926C283.394 308.206 276.856 311.487 270.32 314.767C268.813 315.524 267.307 316.279 265.8 317.036C266.021 317.257 266.243 317.479 266.465 317.7C270.307 311.147 274.202 304.619 277.995 298.037C278.886 296.492 279.738 294.924 280.607 293.368C280.912 292.823 280.073 292.333 279.767 292.879Z" fill="#151B32"/>
<path d="M271.8 304.082C273.286 305.087 274.773 306.092 276.26 307.097C276.47 307.239 276.68 307.381 276.89 307.523C277.201 307.734 277.494 307.229 277.184 307.02C275.698 306.014 274.211 305.009 272.725 304.004C272.515 303.862 272.305 303.72 272.095 303.579C271.783 303.367 271.49 303.873 271.8 304.082Z" fill="#151B32"/>
<path d="M274.198 300.722C275.685 301.727 277.171 302.732 278.658 303.737C278.868 303.879 279.077 304.021 279.287 304.163C279.599 304.374 279.891 303.869 279.582 303.66C278.096 302.654 276.609 301.649 275.122 300.644C274.912 300.502 274.702 300.36 274.492 300.219C274.18 300.008 273.889 300.513 274.198 300.722Z" fill="#151B32"/>
<path d="M276.504 298.22C275.166 298.36 273.816 298.427 272.472 298.448C271.334 298.466 270.193 298.447 269.06 298.34C268.093 298.249 267.062 298.117 266.168 297.711C265.501 297.408 265.065 296.971 265.19 296.202C265.309 295.468 265.822 295.067 266.54 294.976C267.437 294.861 268.381 295.109 269.232 295.367C270.285 295.688 271.304 296.115 272.299 296.582C273.687 297.232 275.053 297.955 276.357 298.763C276.677 298.961 276.97 298.457 276.651 298.259C275.421 297.498 274.135 296.813 272.829 296.189C270.983 295.308 268.72 294.2 266.613 294.385C265.853 294.452 265.135 294.773 264.799 295.495C264.48 296.179 264.473 297.04 265.003 297.614C265.589 298.25 266.538 298.508 267.355 298.678C268.529 298.922 269.739 298.999 270.936 299.027C272.79 299.07 274.66 298.996 276.504 298.802C276.874 298.764 276.878 298.18 276.504 298.22Z" fill="#151B32"/>
<path d="M269.081 291.501C271.289 293.613 273.497 295.726 275.705 297.838C276.021 298.139 276.337 298.442 276.652 298.744C276.924 299.003 277.336 298.591 277.064 298.331C274.856 296.219 272.648 294.107 270.44 291.995C270.124 291.692 269.809 291.391 269.493 291.089C269.222 290.829 268.81 291.241 269.081 291.501Z" fill="#151B32"/>
<path d="M301.93 288.595C296.697 288.868 292.938 292.79 292.673 297.525C292.548 299.749 293.787 302.895 293.926 303.462L302.537 299.162L301.93 288.595Z" fill="#2969FF"/>
<path d="M301.931 288.109C298.234 288.338 294.786 290.354 293.157 293.753C292.386 295.362 292.034 297.166 292.258 298.943C292.461 300.556 293.046 302.034 293.46 303.592C293.545 303.911 293.898 304.019 294.173 303.882C297.044 302.449 299.914 301.016 302.784 299.582C302.928 299.511 303.034 299.323 303.025 299.163C302.823 295.64 302.62 292.117 302.418 288.596C302.382 287.974 301.411 287.97 301.446 288.596C301.648 292.118 301.851 295.641 302.053 299.163C302.134 299.023 302.214 298.883 302.294 298.743C299.424 300.176 296.554 301.609 293.684 303.043C293.922 303.14 294.159 303.236 294.397 303.333C294.051 302.029 293.559 300.782 293.314 299.447C293 297.739 293.203 296.003 293.917 294.416C295.348 291.234 298.498 289.295 301.932 289.082C302.553 289.043 302.557 288.07 301.931 288.109Z" fill="#151B32"/>
<path d="M277.72 258.247L298.733 258.43L310.74 163.712L270.766 165.071L277.72 258.247Z" fill="#151B32"/>
<path d="M289.255 169.623C290.135 173.688 292.929 177.801 296.881 179.334C298.799 180.078 300.876 180.134 302.889 179.813C303.504 179.715 303.243 178.778 302.631 178.876C299.45 179.383 296.318 178.601 293.993 176.322C292.416 174.776 291.3 172.776 290.584 170.7C290.433 170.263 290.29 169.817 290.192 169.365C290.06 168.754 289.123 169.012 289.255 169.623Z" fill="#2969FF"/>
<path d="M277.719 258.733C283.849 258.786 289.98 258.84 296.11 258.893C296.984 258.901 297.858 258.909 298.732 258.916C299.019 258.918 299.185 258.689 299.218 258.43C299.617 255.285 300.016 252.14 300.414 248.995C301.371 241.444 302.328 233.894 303.286 226.343C304.44 217.243 305.593 208.144 306.747 199.044C307.747 191.15 308.748 183.257 309.748 175.363C310.076 172.776 310.404 170.19 310.732 167.604C310.886 166.389 311.183 165.105 311.204 163.878C311.205 163.823 311.218 163.767 311.225 163.711C311.304 163.093 310.331 163.098 310.253 163.711C309.855 166.856 309.456 170.002 309.058 173.146C308.101 180.697 307.143 188.248 306.186 195.799C305.032 204.899 303.879 213.998 302.726 223.098C301.725 230.992 300.725 238.885 299.724 246.779C299.396 249.365 299.068 251.952 298.741 254.538C298.637 255.352 298.534 256.165 298.431 256.979C298.381 257.372 298.231 257.868 298.269 258.264C298.273 258.315 298.254 258.378 298.248 258.43C298.409 258.268 298.572 258.106 298.734 257.944C292.604 257.891 286.473 257.837 280.343 257.783C279.469 257.776 278.594 257.768 277.72 257.761C277.094 257.755 277.093 258.727 277.719 258.733Z" fill="#2969FF"/>
<path d="M268.411 165.794C268.347 164.495 268.294 163.188 268.267 161.865C267.794 138.938 274.233 116.656 281.913 108.178C284.383 105.451 286.819 104.658 289.36 105.322C301.302 108.441 312.141 130.646 312.766 160.947C312.793 162.271 312.795 163.578 312.784 164.879L268.411 165.794Z" fill="#2969FF"/>
<path d="M268.799 165.794C268.258 154.681 269.143 143.499 271.674 132.656C272.717 128.185 274.035 123.763 275.771 119.51C277.187 116.039 278.887 112.58 281.209 109.616C282.544 107.912 284.185 106.199 286.352 105.655C287.986 105.246 289.639 105.694 291.141 106.353C293.621 107.44 295.746 109.219 297.562 111.202C302.568 116.667 305.643 123.828 307.816 130.823C311.23 141.81 312.477 153.406 312.394 164.88C312.524 164.75 312.653 164.621 312.782 164.491C307.774 164.594 302.765 164.698 297.757 164.801C289.809 164.965 281.861 165.129 273.913 165.293C272.079 165.331 270.245 165.368 268.41 165.406C267.91 165.416 267.908 166.194 268.41 166.183C273.418 166.08 278.427 165.977 283.435 165.874C291.383 165.71 299.331 165.546 307.279 165.383C309.114 165.345 310.948 165.307 312.782 165.269C312.994 165.265 313.17 165.094 313.171 164.881C313.249 154.189 312.164 143.41 309.293 133.089C307.199 125.561 304.157 117.915 299.135 111.831C295.527 107.461 288.835 102.037 283.246 106.395C280.354 108.651 278.361 112.179 276.764 115.412C274.757 119.476 273.246 123.783 272.027 128.143C268.611 140.347 267.406 153.156 268.021 165.796C268.045 166.292 268.823 166.295 268.799 165.794Z" fill="#151B32"/>
<path d="M268.119 168.204L313.714 167.264C314.841 167.24 315.735 166.308 315.712 165.183L315.667 163.014C315.644 161.887 314.712 160.993 313.586 161.016L267.99 161.956C266.863 161.98 265.969 162.912 265.993 164.037L266.037 166.206C266.061 167.333 266.993 168.227 268.119 168.204Z" fill="#151B32"/>
<path d="M262.666 141.403C262.666 141.403 244.338 135.722 241.413 133.882C238.488 132.041 240.072 130.266 242.392 131.331C242.392 131.331 240.137 130.434 240.194 129.482C240.252 128.529 242.118 128.613 244.074 129.462C244.074 129.462 240.33 128.357 240.473 127.206C240.615 126.056 242.763 126.392 244.88 127.293C244.88 127.293 241.291 125.93 241.58 124.683C241.87 123.436 245.273 123.71 250.939 126.43C250.939 126.43 246.603 123.554 247.298 122.301C247.993 121.047 254.512 125.292 257.248 126.734C259.985 128.176 267.427 130.948 267.427 130.948L262.666 141.403Z" fill="#D3D8EA"/>
<path d="M241.727 131.432C243.604 132.352 245.504 133.225 247.425 134.051C247.767 134.198 248.064 133.696 247.72 133.548C245.8 132.721 243.9 131.848 242.022 130.928C241.686 130.764 241.39 131.267 241.727 131.432Z" fill="#151B32"/>
<path d="M242.742 129.336C244.521 130.032 246.299 130.729 248.078 131.425C248.334 131.525 248.592 131.626 248.848 131.726C249.198 131.863 249.35 131.3 249.003 131.164C247.224 130.468 245.446 129.771 243.668 129.075C243.411 128.975 243.154 128.874 242.897 128.774C242.548 128.637 242.396 129.2 242.742 129.336Z" fill="#151B32"/>
<path d="M243.366 127.018C245.538 127.827 247.656 128.767 249.713 129.835C250.046 130.007 250.342 129.504 250.008 129.331C247.907 128.241 245.74 127.282 243.521 126.456C243.168 126.325 243.017 126.888 243.366 127.018Z" fill="#151B32"/>
<path d="M320.835 133.611C311.847 113.908 289.614 104.86 289.614 104.86L291.319 120.062L296.11 128.865L267.229 128.407L259.234 142.995C298.295 162.53 329.445 152.488 320.835 133.611Z" fill="#2969FF"/>
<path d="M289.51 105.234C293.229 106.751 297.254 109.158 300.707 111.521C308.169 116.626 314.862 123.169 319.188 131.175C320.786 134.134 322.185 137.335 321.832 140.775C321.561 143.42 320.199 145.769 318.256 147.545C312.854 152.48 304.428 153.338 297.457 153.187C285.932 152.938 274.526 149.546 264.071 144.858C262.508 144.157 260.962 143.421 259.43 142.658C259.477 142.835 259.523 143.012 259.569 143.189C261.194 140.225 262.819 137.261 264.444 134.296C265.343 132.656 266.242 131.016 267.141 129.375C267.235 129.204 267.379 129.015 267.44 128.829C267.452 128.794 267.536 128.704 267.529 128.666C267.498 128.493 267.241 128.845 267.229 128.795C267.234 128.815 267.755 128.803 267.788 128.803C275.612 128.928 283.436 129.051 291.26 129.176C294.037 129.22 296.815 129.263 299.593 129.308C300.093 129.315 300.093 128.538 299.593 128.53C290.141 128.38 280.69 128.231 271.238 128.081C269.901 128.06 268.564 128.038 267.228 128.017C267.094 128.015 266.956 128.092 266.892 128.21C264.56 132.465 262.227 136.72 259.895 140.975C259.562 141.583 259.23 142.19 258.897 142.797C258.801 142.972 258.844 143.233 259.036 143.329C269.985 148.783 281.898 152.883 294.162 153.803C301.795 154.375 310.785 153.923 317.264 149.327C319.479 147.755 321.311 145.63 322.15 143.014C323.028 140.277 322.692 137.321 321.691 134.667C319.999 130.176 317.156 126.019 314.072 122.375C311.114 118.88 307.722 115.77 304.082 113C301.201 110.809 298.155 108.83 294.986 107.081C293.379 106.194 291.727 105.283 290.015 104.609C289.914 104.569 289.816 104.523 289.716 104.483C289.254 104.296 289.052 105.047 289.51 105.234Z" fill="#151B32"/>
<path d="M290.984 120.257C292.38 122.821 293.775 125.386 295.171 127.95C295.372 128.32 295.574 128.69 295.776 129.061C296.015 129.5 296.687 129.108 296.447 128.668C295.051 126.104 293.656 123.539 292.26 120.975C292.059 120.605 291.857 120.234 291.655 119.864C291.417 119.425 290.745 119.817 290.984 120.257Z" fill="#151B32"/>
<path d="M282.854 107.987H292.023V91.6548H282.854V107.987Z" fill="#D3D8EA"/>
<path d="M292.436 92.1372C292.374 92.3696 292.302 92.5966 292.224 92.819C292.217 93.0779 292.184 93.3391 292.116 93.5995L292.436 92.1372L281.805 97.2332L281.818 97.1866L278.736 96.3765C275.193 95.4451 273.162 91.3823 274.223 87.3482L276.395 79.0873C277.456 75.0532 281.223 72.5156 284.766 73.447L290.095 74.8487C293.638 75.7801 295.669 79.8429 294.608 83.877L292.436 92.1372Z" fill="white"/>
<path d="M283.188 97.5901L278.736 96.3758C275.193 95.4444 273.162 91.3816 274.223 87.3475L276.395 79.0865C277.456 75.0524 281.223 72.5149 284.766 73.4463L290.095 74.8472C293.638 75.7786 295.669 79.8414 294.608 83.8755L292.436 92.1364C292.374 92.3689 292.302 92.5959 292.224 92.8182C292.217 93.0771 292.292 97.3297 292.224 97.5901" fill="white"/>
<path d="M276.091 81.0222C276.091 81.0222 274.723 82.6812 273.569 83.5955C272.416 84.5098 272.418 84.3356 272.418 84.3356C272.418 84.3356 274.222 85.8376 275.073 86.1494C275.924 86.4611 276.091 81.0222 276.091 81.0222Z" fill="white"/>
<path d="M281.523 84.6987C281.459 85.3735 280.86 85.8687 280.185 85.8042C279.51 85.7405 279.016 85.1411 279.08 84.4663C279.144 83.7915 279.743 83.297 280.418 83.3608C281.093 83.4253 281.587 84.0247 281.523 84.6987Z" fill="#151B32"/>
<path d="M273.999 91.7602C274.336 92.0004 274.783 92.1116 275.187 92.1544C276.183 92.2593 277.112 91.7898 277.848 91.1569C278.133 90.912 277.719 90.5008 277.436 90.7449C276.802 91.2891 276.006 91.677 275.153 91.5674C275.072 91.5573 274.912 91.5223 274.801 91.4889C274.745 91.4726 274.691 91.4539 274.637 91.4337C274.615 91.4252 274.592 91.4166 274.57 91.4073C274.638 91.4345 274.563 91.4042 274.55 91.3979C274.463 91.356 274.374 91.3132 274.294 91.2572C274.166 91.1655 273.97 91.2347 273.896 91.3622C273.809 91.5083 273.871 91.6685 273.999 91.7602Z" fill="#151B32"/>
<path d="M275.405 81.3682C274.567 82.4846 273.491 83.4074 272.272 84.0838C272.113 84.1724 272.076 84.4158 272.213 84.5417C272.814 85.0921 273.484 85.5601 274.211 85.9271C274.546 86.0958 274.841 85.5928 274.506 85.4233C273.821 85.0781 273.191 84.6474 272.625 84.1289C272.606 84.2813 272.586 84.4344 272.566 84.5868C273.877 83.8591 275.008 82.8601 275.908 81.6621C276.003 81.5354 275.927 81.3379 275.803 81.2633C275.656 81.1747 275.499 81.2431 275.405 81.3682Z" fill="#151B32"/>
<path d="M280.411 82.0804C281.018 82.8104 281.625 83.5397 282.233 84.2697C282.334 84.391 282.541 84.3739 282.645 84.2697C282.765 84.15 282.746 83.9789 282.645 83.8576C282.038 83.1276 281.431 82.3984 280.823 81.6684C280.722 81.5471 280.515 81.5642 280.411 81.6684C280.291 81.7881 280.31 81.9592 280.411 82.0804Z" fill="#151B32"/>
<path d="M291.878 90.3158L291.181 87.6974C291.181 87.6974 282.78 85.2438 276.945 76.144C271.109 67.0442 279.956 59.4806 287.277 63.9563C290.556 65.9613 292.982 72.1263 292.982 72.1263C292.982 72.1263 306.076 78.2913 301.54 90.79C301.54 90.79 300.201 98.3948 292.026 98.3964L291.878 90.3158Z" fill="#151B32"/>
<path d="M297.637 91.3326C297.266 93.5374 295.163 95.0215 292.941 94.6476C290.718 94.2736 289.217 92.1831 289.588 89.9783C289.958 87.7735 292.061 86.2894 294.284 86.6634C296.507 87.0373 298.008 89.1278 297.637 91.3326Z" fill="white"/>
<path d="M291.666 90.8164C291.673 90.7479 291.647 90.9306 291.665 90.828C291.675 90.7643 291.687 90.7005 291.702 90.6376C291.723 90.5474 291.747 90.4587 291.775 90.3709C291.79 90.3219 291.808 90.2737 291.825 90.2263C291.836 90.1991 291.846 90.1726 291.857 90.1462C291.873 90.1042 291.822 90.2216 291.851 90.1594C291.858 90.1439 291.864 90.1291 291.871 90.1136C291.926 89.9946 291.988 89.8788 292.059 89.7692C292.076 89.7443 292.092 89.7202 292.109 89.6953C292.118 89.6829 292.127 89.6712 292.136 89.6588C292.178 89.5974 292.103 89.6984 292.133 89.6611C292.179 89.6044 292.227 89.5484 292.279 89.4963C292.326 89.4481 292.377 89.4046 292.427 89.3595C292.482 89.3113 292.394 89.3789 292.468 89.3284C292.503 89.305 292.537 89.2817 292.573 89.2599C292.635 89.2219 292.699 89.1892 292.765 89.1581C292.813 89.1356 292.694 89.1845 292.775 89.1542C292.792 89.148 292.808 89.141 292.825 89.1356C292.869 89.12 292.913 89.106 292.957 89.0936C293.003 89.0804 293.05 89.0695 293.097 89.0601C293.117 89.0563 293.136 89.0532 293.156 89.0493C293.23 89.0353 293.12 89.0516 293.191 89.0438C293.299 89.0322 293.407 89.0275 293.516 89.0298C293.782 89.036 294.003 89.0796 294.273 89.1542C294.672 89.2646 294.842 88.645 294.444 88.5354C293.582 88.2975 292.652 88.3247 291.947 88.9288C291.514 89.2996 291.241 89.8469 291.102 90.3919C291.066 90.5311 291.039 90.6733 291.025 90.8164C291.007 90.9889 291.185 91.1374 291.346 91.1374C291.534 91.1374 291.648 90.9897 291.666 90.8164Z" fill="#151B32"/>
<path d="M283.249 108.711L291.706 108.624C293.924 108.602 295.703 106.785 295.681 104.567C295.658 102.349 293.841 100.569 291.623 100.593L283.167 100.68C280.949 100.702 279.169 102.519 279.192 104.737C279.215 106.955 281.031 108.735 283.249 108.711Z" fill="#151B32"/>
<path d="M361.608 303.297H249.344V352.391H361.608V303.297Z" fill="white" stroke="#151B32" stroke-miterlimit="10"/>
<path d="M366.985 297.272H243.969V308.657H366.985V297.272Z" fill="white" stroke="#151B32" stroke-miterlimit="10"/>
<path d="M140.245 288.213H27.9805V352.39H140.245V288.213Z" fill="white" stroke="#151B32" stroke-miterlimit="10"/>
<path d="M145.618 282.713H22.6016V294.098H145.618V282.713Z" fill="white" stroke="#151B32" stroke-miterlimit="10"/>
<path d="M251.245 267.097H138.98V352.39H251.245V267.097Z" fill="white" stroke="#151B32" stroke-miterlimit="10"/>
<path d="M256.618 259.416H133.602V270.801H256.618V259.416Z" fill="white" stroke="#151B32" stroke-miterlimit="10"/>
<path d="M215.942 51.5791C219.445 51.2951 222.982 51.1929 226.493 51.3141C228.976 51.3998 230.717 51.4128 232.975 52.1741C233.141 52.2304 233.685 52.5023 233.166 52.2347C233.302 52.3049 233.445 52.4001 233.585 52.4564C233.986 52.6175 233.454 52.2936 233.558 52.4175C233.455 52.2945 233.194 51.8493 233.182 51.8078C233.305 52.2105 233.241 51.3297 233.165 51.6112C233.139 51.7056 233.163 51.8796 233.165 51.9801C233.171 52.1732 233.05 52.6322 233.189 51.9429C233.152 52.1265 233.127 52.3127 233.089 52.4971C232.918 53.3234 232.661 54.1314 232.386 54.9282C232.218 55.4123 232.04 55.8921 231.854 56.3701C231.755 56.6265 231.652 56.882 231.549 57.1366C231.51 57.2345 231.47 57.3332 231.429 57.4311C231.161 58.0841 231.594 57.0535 231.31 57.716C230.284 60.1202 229.136 62.4732 227.928 64.7917C226.711 67.1309 225.426 69.438 224.054 71.6906C223.473 72.6459 222.874 73.5925 222.247 74.5192C221.976 74.9193 221.701 75.316 221.417 75.7065C221.288 75.8832 221.158 76.0582 221.025 76.2322C221.327 75.8313 220.969 76.2998 220.856 76.4358C217.84 80.0914 212.741 81.8607 208.163 82.5259C209.051 83.4136 209.939 84.3013 210.826 85.189C212.927 74.9202 215.029 64.6514 217.13 54.3825C217.43 52.918 217.73 51.4535 218.029 49.989C218.264 48.8441 217.698 47.6498 216.517 47.3259C215.447 47.0315 214.09 47.6871 213.854 48.8381C211.753 59.1069 209.651 69.3757 207.55 79.6445C207.25 81.109 206.951 82.5735 206.651 84.038C206.294 85.7822 207.652 86.9427 209.314 86.7011C214.153 85.9987 219.423 83.9834 222.958 80.5452C224.502 79.0434 225.716 77.1632 226.87 75.3567C228.355 73.033 229.722 70.6332 231.022 68.2013C232.366 65.6863 233.638 63.1297 234.782 60.5177C235.699 58.4244 236.633 56.2792 237.174 54.0508C237.563 52.4417 237.84 50.461 236.469 49.226C234.692 47.6264 231.759 47.39 229.505 47.1718C225.022 46.7361 220.427 46.8834 215.941 47.248C214.776 47.3424 213.776 48.1755 213.776 49.4131C213.777 50.5121 214.77 51.6744 215.942 51.5791Z" fill="#22C197"/>
<path d="M173.62 47.2491C169.768 46.9365 165.864 46.8265 162.005 47.03C159.632 47.1547 157.083 47.3167 154.859 48.2182C153.811 48.6426 152.817 49.1882 152.356 50.2734C151.982 51.1524 152.043 52.0592 152.182 52.9807C152.471 54.9172 153.216 56.7827 153.957 58.5832C155.039 61.2099 156.25 63.7804 157.547 66.3075C159.873 70.8387 162.359 75.4877 165.598 79.4456C169.025 83.6312 174.994 85.941 180.247 86.7031C181.909 86.9439 183.268 85.7842 182.91 84.04C180.809 73.7712 178.707 63.5024 176.606 53.2336C176.306 51.7691 176.007 50.3046 175.707 48.8401C175.472 47.6943 174.117 47.0326 173.044 47.3279C171.852 47.6553 171.296 48.8418 171.532 49.9911C173.633 60.2599 175.735 70.5287 177.836 80.7975C178.135 82.262 178.435 83.7265 178.735 85.191C179.622 84.3033 180.51 83.4156 181.398 82.5279C177.32 81.9355 172.786 80.4597 169.767 77.5844C169.406 77.2406 169.069 76.8743 168.75 76.4915C168.626 76.3434 168.507 76.1918 168.387 76.0402C168.715 76.4551 168.294 75.9103 168.196 75.7752C167.577 74.93 166.995 74.0561 166.432 73.1736C165.06 71.0258 163.789 68.813 162.577 66.5708C160.241 62.2509 158.064 58.1432 156.76 53.6302C156.657 53.2777 156.563 52.9226 156.487 52.5632C156.451 52.3978 156.434 52.2246 156.391 52.0618C156.304 51.7232 156.422 52.2601 156.422 52.2939C156.423 52.19 156.395 52.0852 156.397 51.9804C156.397 51.8799 156.414 51.7526 156.396 51.6547C156.325 51.2806 156.282 52.1605 156.372 51.8418C156.412 51.6972 156.182 52.1839 156.122 52.2644C155.896 52.5693 155.975 52.4584 156.042 52.3796C156.004 52.4238 155.647 52.5615 155.921 52.4896C156.062 52.4524 156.264 52.3043 156.396 52.235C155.962 52.4645 156.378 52.2454 156.587 52.1744C157.033 52.0237 157.492 51.9111 157.953 51.8141C158.209 51.7604 158.467 51.7136 158.725 51.6703C158.805 51.6573 159.594 51.5482 159.184 51.5993C159.812 51.5214 160.444 51.4633 161.075 51.4183C165.236 51.1195 169.464 51.2425 173.62 51.5794C174.787 51.6738 175.785 50.5167 175.785 49.4143C175.785 48.1637 174.791 47.3444 173.62 47.2491Z" fill="#22C197"/>
<path d="M219.712 41.5969H198.529H191.039H169.856C169.856 41.5969 168.931 66.7558 172.446 75.1721C175.8 83.2057 181.922 89.7539 193.904 92.1243H195.665C207.647 89.7539 213.769 83.2057 217.124 75.1721C220.637 66.7558 219.712 41.5969 219.712 41.5969Z" fill="#22C197"/>
<path d="M195.707 51.6347L198.465 57.2243C198.616 57.5291 198.907 57.7404 199.243 57.7889L205.411 58.6853C206.258 58.8083 206.597 59.8493 205.984 60.4468L201.52 64.7979C201.277 65.0352 201.166 65.3773 201.223 65.7116L202.277 71.8554C202.421 72.6989 201.536 73.3424 200.779 72.944L195.262 70.0436C194.961 69.8851 194.602 69.8851 194.3 70.0436L188.784 72.944C188.026 73.3424 187.141 72.6989 187.285 71.8554L188.339 65.7116C188.397 65.3764 188.286 65.0343 188.042 64.7979L183.579 60.4468C182.966 59.8493 183.304 58.8083 184.151 58.6853L190.319 57.7889C190.655 57.7404 190.946 57.5291 191.097 57.2243L193.855 51.6347C194.234 50.8665 195.328 50.8665 195.707 51.6347Z" fill="white"/>
<path d="M169.941 45.9722C175.564 45.9722 181.187 45.9722 186.811 45.9722C195.693 45.9722 204.574 45.9722 213.457 45.9722C215.514 45.9722 217.571 45.9722 219.628 45.9722C220.324 45.9722 220.326 44.8896 219.628 44.8896C214.005 44.8896 208.382 44.8896 202.758 44.8896C193.876 44.8896 184.995 44.8896 176.112 44.8896C174.055 44.8896 171.999 44.8896 169.941 44.8896C169.245 44.8896 169.243 45.9722 169.941 45.9722Z" fill="#151B32"/>
<path d="M179.182 79.6947C180.008 80.5036 180.891 81.2501 181.818 81.9395C182.182 82.2097 182.552 82.4773 182.939 82.7146C183.229 82.8921 183.666 82.7874 183.827 82.4816C183.995 82.1647 183.904 81.7827 183.594 81.5931C183.22 81.3636 182.863 81.1055 182.511 80.8448C182.429 80.7842 182.347 80.7227 182.266 80.6603C182.239 80.6404 182.213 80.6196 182.187 80.5997C182.244 80.6439 182.255 80.6517 182.217 80.6231C182.169 80.585 182.12 80.5469 182.071 80.5088C181.868 80.3477 181.667 80.184 181.467 80.0168C180.997 79.6202 180.542 79.2062 180.102 78.7758C179.858 78.5376 179.422 78.5151 179.183 78.7758C178.946 79.033 178.922 79.4409 179.182 79.6947Z" fill="white"/>
<path d="M172.976 51.0587C172.896 54.0431 172.947 57.0362 173.075 60.018C173.184 62.5425 173.361 65.068 173.687 67.5743C174.008 70.0512 174.417 72.5204 175.508 74.7886C175.87 75.542 176.991 74.8838 176.629 74.133C175.526 71.8388 175.172 69.2233 174.88 66.7169C174.599 64.3067 174.445 61.8818 174.352 59.4577C174.243 56.662 174.2 53.8569 174.275 51.0595C174.297 50.2221 172.998 50.2229 172.976 51.0587Z" fill="white"/>
<path d="M195.124 112.238C195.124 112.238 194.898 112.194 194.784 112.205C194.67 112.194 194.445 112.238 194.445 112.238C180.376 113.654 177.41 122.137 177.41 122.137H194.445H195.124H212.158C212.158 122.137 209.192 113.654 195.124 112.238Z" fill="#22C197"/>
<path d="M198.044 88.7H191.523V116.865H198.044V88.7Z" fill="#22C197"/>
<path d="M213.606 126.229H175.965C175.096 126.229 174.391 125.524 174.391 124.655V123.711C174.391 122.841 175.096 122.136 175.965 122.136H213.606C214.475 122.136 215.18 122.841 215.18 123.711V124.655C215.18 125.524 214.475 126.229 213.606 126.229Z" fill="#22C197"/>
<path d="M177.41 122.678C187.65 122.678 197.89 122.678 208.13 122.678C209.552 122.678 210.975 122.678 212.397 122.678C213.093 122.678 213.095 121.595 212.397 121.595C202.157 121.595 191.917 121.595 181.677 121.595C180.255 121.595 178.832 121.595 177.41 121.595C176.713 121.595 176.712 122.678 177.41 122.678Z" fill="#151B32"/>
<path d="M198.494 95.4199H191.074C189.598 95.4199 188.402 94.2238 188.402 92.7481C188.402 91.2723 189.598 90.0754 191.074 90.0754H198.494C199.969 90.0754 201.165 91.2723 201.165 92.7481C201.165 94.223 199.969 95.4199 198.494 95.4199Z" fill="#22C197"/>
<path d="M189.289 91.4576C192.393 91.4576 195.498 91.4576 198.602 91.4576C199.041 91.4576 199.48 91.4576 199.919 91.4576C200.615 91.4576 200.617 90.375 199.919 90.375C196.815 90.375 193.71 90.375 190.606 90.375C190.167 90.375 189.728 90.375 189.289 90.375C188.592 90.375 188.591 91.4576 189.289 91.4576Z" fill="#151B32"/>
<path d="M191.616 95.961C193.467 95.961 195.317 95.961 197.168 95.961C197.429 95.961 197.691 95.961 197.953 95.961C198.65 95.961 198.651 94.8784 197.953 94.8784C196.102 94.8784 194.253 94.8784 192.402 94.8784C192.14 94.8784 191.879 94.8784 191.616 94.8784C190.92 94.8784 190.919 95.961 191.616 95.961Z" fill="#151B32"/>
<path d="M233.646 52.4486C233.649 52.427 233.654 52.4053 233.658 52.3837C233.68 52.3118 233.684 52.2399 233.667 52.168C233.664 52.0961 233.643 52.0286 233.603 51.9671C233.575 51.9307 233.547 51.8943 233.518 51.8571C233.451 51.7904 233.371 51.7437 233.279 51.7177C233.279 51.7177 233.278 51.7168 233.277 51.7168C233.205 51.6943 233.133 51.6908 233.061 51.7073C232.989 51.7107 232.922 51.7324 232.86 51.7714C232.824 51.8 232.788 51.8277 232.751 51.8562C232.684 51.9238 232.638 52.0035 232.612 52.0953C232.6 52.162 232.591 52.2295 232.583 52.2962C232.577 52.3456 232.598 52.433 232.602 52.4486C232.614 52.4937 232.633 52.5378 232.657 52.5785C232.691 52.6418 232.737 52.692 232.796 52.7301C232.814 52.7448 232.833 52.7587 232.851 52.7725C232.936 52.8219 233.027 52.8461 233.124 52.8461C233.171 52.8401 233.22 52.8332 233.267 52.8271C233.363 52.8054 233.435 52.7509 233.506 52.6877C233.559 52.6383 233.596 52.5803 233.618 52.5136C233.652 52.4495 233.667 52.3793 233.665 52.3049C233.667 52.2304 233.652 52.1611 233.618 52.0961C233.596 52.0295 233.559 51.9706 233.506 51.9221C233.47 51.8935 233.434 51.8658 233.397 51.8372C233.312 51.7878 233.221 51.7636 233.124 51.7636C233.077 51.7696 233.028 51.7766 232.981 51.7826C232.889 51.8086 232.809 51.8545 232.742 51.9221C232.821 51.8753 232.901 51.8294 232.981 51.7826C233.12 51.8008 233.259 51.819 233.398 51.8372C233.463 51.9021 233.527 51.9662 233.592 52.0312C233.61 52.0745 233.628 52.1178 233.647 52.1602C233.653 52.2079 233.66 52.2564 233.666 52.304C233.665 52.2997 233.667 52.2945 233.667 52.2893C233.661 52.3369 233.654 52.3854 233.648 52.433C233.65 52.4157 233.653 52.3984 233.655 52.3811C233.434 52.5075 233.212 52.6331 232.989 52.7595C232.99 52.7604 232.991 52.7604 232.992 52.7604C232.866 52.5387 232.74 52.3161 232.614 52.0944C232.611 52.1161 232.607 52.1377 232.603 52.1594C232.581 52.2312 232.577 52.3031 232.594 52.375C232.597 52.4469 232.619 52.5144 232.658 52.5759C232.691 52.6392 232.738 52.6894 232.797 52.7275C232.849 52.7751 232.91 52.808 232.982 52.8245C233.029 52.8306 233.078 52.8375 233.125 52.8435C233.223 52.8435 233.314 52.8184 233.398 52.7699C233.434 52.7414 233.471 52.7136 233.507 52.6851C233.574 52.6201 233.621 52.5404 233.646 52.4486Z" fill="#151B32"/>
<path d="M236.852 48.845C234.959 47.2428 232.469 46.9241 230.083 46.6876C226.665 46.3481 223.244 46.3083 219.813 46.4598C219.993 46.64 220.174 46.821 220.354 47.0011C220.34 45.1997 220.316 43.3975 220.252 41.5969C220.242 41.3042 220.012 41.0557 219.711 41.0557C212.783 41.0557 205.856 41.0557 198.928 41.0557C192.947 41.0557 186.967 41.0557 180.986 41.0557C177.275 41.0557 173.565 41.0557 169.855 41.0557C169.554 41.0557 169.324 41.3042 169.313 41.5969C169.249 43.4027 169.225 45.211 169.21 47.0176C169.391 46.8374 169.572 46.6564 169.752 46.4763C166.664 46.3516 163.573 46.3577 160.491 46.5785C158.107 46.75 155.421 47.0288 153.365 48.3626C151.268 49.7223 151.371 52.0866 151.888 54.2777C152.535 57.0153 153.783 59.6559 154.953 62.203C157.281 67.272 159.873 72.3601 163.056 76.951C164.431 78.9326 165.897 80.8327 167.813 82.3197C169.62 83.721 171.661 84.7802 173.793 85.5934C175.031 86.0663 176.303 86.4482 177.595 86.7496C178.221 86.8959 178.851 87.0207 179.486 87.1272C180 87.2129 180.615 87.1714 181.091 87.3584C181.68 87.5888 182.259 88.176 182.807 88.5137C183.416 88.8887 184.041 89.2395 184.677 89.5651C186.08 90.284 187.541 90.8781 189.032 91.3899C188.952 91.0885 188.872 90.7871 188.793 90.4849C187.796 91.6064 187.542 93.1826 188.374 94.4835C189.092 95.6059 190.259 95.9601 191.523 95.9601C191.342 95.7799 191.161 95.5989 190.981 95.4188C190.981 101.167 190.981 106.915 190.981 112.663C191.114 112.489 191.246 112.315 191.379 112.141C187.097 112.981 182.869 114.703 179.749 117.84C178.592 119.002 177.446 120.424 176.887 121.992C177.061 121.859 177.235 121.727 177.409 121.594C176.467 121.594 175.402 121.439 174.621 122.081C173.791 122.763 173.683 124.081 173.892 125.081C174.196 126.53 175.494 126.77 176.721 126.77C180.014 126.77 183.306 126.77 186.599 126.77C195.127 126.77 203.655 126.77 212.182 126.77C213.257 126.77 214.464 126.934 215.234 125.997C215.942 125.135 215.958 123.308 215.277 122.423C214.51 121.428 213.271 121.595 212.159 121.595C212.333 121.728 212.507 121.86 212.681 121.993C212.123 120.424 210.976 119.003 209.82 117.841C206.699 114.704 202.471 112.982 198.189 112.141C198.322 112.316 198.455 112.49 198.587 112.664C198.587 106.916 198.587 101.168 198.587 95.4197C198.407 95.5998 198.226 95.7808 198.046 95.9609C199.308 95.9609 200.478 95.6041 201.195 94.4843C202.027 93.1826 201.773 91.6073 200.776 90.4858C200.696 90.7871 200.616 91.0885 200.536 91.3908C202.481 90.7231 204.375 89.9098 206.155 88.8775C206.905 88.4427 207.685 87.6728 208.477 87.3602C209.238 87.0596 210.305 87.1029 211.124 86.9358C214.835 86.1797 218.522 84.7377 221.56 82.4462C224.861 79.958 227.003 76.3214 229.068 72.8113C231.42 68.8127 233.556 64.6756 235.413 60.4241C236.357 58.2668 237.303 56.0757 237.796 53.7633C238.167 52.0113 238.193 50.1873 236.852 48.845C236.359 48.3513 235.594 49.1169 236.086 49.6106C237.446 50.972 236.911 53.0471 236.446 54.6917C235.85 56.7971 234.959 58.8107 234.068 60.8052C232.372 64.6063 230.437 68.3113 228.341 71.9063C226.394 75.2458 224.374 78.8382 221.307 81.2813C218.436 83.5694 214.898 84.9915 211.337 85.7822C210.839 85.8931 210.338 85.9944 209.834 86.0767C209.39 86.1485 208.892 86.0689 208.474 86.1477C207.757 86.2819 206.984 87.096 206.361 87.4866C204.443 88.6861 202.384 89.6128 200.247 90.3463C199.851 90.4823 199.729 90.937 200.008 91.2513C200.776 92.1139 200.844 93.4052 199.998 94.2522C199.45 94.8004 198.774 94.8784 198.044 94.8784C197.751 94.8784 197.503 95.1261 197.503 95.4197C197.503 101.168 197.503 106.916 197.503 112.664C197.503 112.886 197.67 113.141 197.9 113.186C202.005 113.991 206.058 115.597 209.053 118.607C210.053 119.612 211.225 121.126 211.636 122.281C211.716 122.508 211.907 122.679 212.158 122.679C213.136 122.679 214.485 122.433 214.638 123.765C214.736 124.629 214.569 125.583 213.546 125.689C212.912 125.755 212.237 125.689 211.601 125.689C208.392 125.689 205.182 125.689 201.972 125.689C194.252 125.689 186.532 125.689 178.812 125.689C177.926 125.689 177.009 125.758 176.125 125.689C175.247 125.621 174.93 125.009 174.93 124.184C174.93 123.368 175.177 122.762 176.089 122.679C176.522 122.639 176.975 122.679 177.41 122.679C177.663 122.679 177.851 122.508 177.932 122.281C178.003 122.083 178.268 121.562 178.471 121.217C179.034 120.26 179.734 119.393 180.516 118.607C183.511 115.597 187.564 113.992 191.669 113.187C191.899 113.142 192.066 112.89 192.066 112.665C192.066 106.917 192.066 101.169 192.066 95.4205C192.066 95.1278 191.819 94.8792 191.525 94.8792C190.792 94.8792 190.126 94.8074 189.571 94.2531C188.727 93.4087 188.793 92.1157 189.561 91.2522C189.84 90.9378 189.719 90.4832 189.322 90.3472C186.911 89.5192 184.597 88.4419 182.479 87.0155C182.135 86.7842 181.753 86.3573 181.368 86.223C180.973 86.0853 180.507 86.1936 180.087 86.1356C179.025 85.9875 177.966 85.7467 176.931 85.4696C172.664 84.3298 168.554 82.2548 165.746 78.7654C162.586 74.8387 160.212 70.3257 157.928 65.8543C156.688 63.4267 155.527 60.9593 154.485 58.44C154.035 57.3505 153.594 56.2549 153.246 55.1273C152.84 53.8127 152.341 52.1602 152.749 50.7962C153.185 49.3421 154.765 48.7584 156.084 48.366C157.517 47.9399 159.007 47.7685 160.494 47.6619C163.577 47.4402 166.668 47.435 169.754 47.5597C170.049 47.5719 170.293 47.3017 170.296 47.0185C170.31 45.211 170.334 43.4035 170.399 41.5978C170.219 41.778 170.038 41.959 169.857 42.1391C176.785 42.1391 183.713 42.1391 190.64 42.1391C196.621 42.1391 202.601 42.1391 208.582 42.1391C212.292 42.1391 216.003 42.1391 219.714 42.1391C219.533 41.959 219.352 41.778 219.172 41.5978C219.236 43.3983 219.26 45.2006 219.274 47.002C219.277 47.2852 219.52 47.5563 219.816 47.5433C222.908 47.4064 226.005 47.4047 229.091 47.6758C231.449 47.8836 234.198 48.011 236.089 49.6106C236.615 50.0574 237.385 49.2953 236.852 48.845Z" fill="#151B32"/>
<path d="M169.137 76.1075C166.359 72.6536 164.261 68.5797 162.182 64.6851C160.074 60.7385 157.794 56.5338 156.951 52.0944C156.825 52.3161 156.699 52.5387 156.573 52.7604C158.419 52.0294 160.564 51.9671 162.52 51.8735C164.932 51.7575 167.347 51.7835 169.759 51.8856C169.579 51.7055 169.398 51.5245 169.217 51.3444C169.277 56.7944 169.462 62.2722 170.179 67.6799C170.468 69.8615 170.822 72.0647 171.502 74.1632C172.332 76.725 173.684 79.1603 175.217 81.3618C175.421 81.0968 175.625 80.8318 175.829 80.5668C173.264 79.5916 170.933 78.2103 169.137 76.1075C168.684 75.5766 167.921 76.3456 168.371 76.8731C170.29 79.1179 172.805 80.5711 175.54 81.6095C175.973 81.7741 176.413 81.1904 176.152 80.8145C174.65 78.6589 173.305 76.2764 172.509 73.7622C171.821 71.5858 171.459 69.3003 171.179 67.0408C170.535 61.8392 170.357 56.5805 170.3 51.3435C170.297 51.0421 170.054 50.8143 169.759 50.8022C167.209 50.6948 164.657 50.6723 162.108 50.8117C160.199 50.9157 158.085 51.0031 156.285 51.7168C155.996 51.8311 155.847 52.0675 155.908 52.3828C156.766 56.9027 159.102 61.2157 161.247 65.2324C163.374 69.2154 165.532 73.3413 168.372 76.8739C168.808 77.4161 169.57 76.6462 169.137 76.1075Z" fill="#151B32"/>
<path d="M231.864 54.7846C229.997 60.0848 227.282 65.1521 224.442 69.9882C223.203 72.0987 221.948 74.3124 220.361 76.1865C218.621 78.2434 216.236 79.604 213.746 80.5558C213.949 80.8208 214.154 81.0858 214.357 81.3508C215.865 79.1839 217.196 76.7902 218.028 74.2751C218.733 72.1446 219.094 69.9007 219.388 67.6818C220.104 62.2751 220.29 56.799 220.349 51.3507C220.169 51.5308 219.988 51.7118 219.808 51.8919C222.173 51.7993 224.536 51.7889 226.901 51.8686C228.937 51.937 231.074 51.9794 232.989 52.7597C233.245 52.8637 233.607 52.6445 233.655 52.3813C233.664 52.3336 233.673 52.2869 233.681 52.2392C233.327 52.1916 232.973 52.1431 232.618 52.0955C232.616 52.0955 232.615 52.0955 232.614 52.0946C232.575 52.3076 232.633 52.6073 232.862 52.706C232.863 52.7069 232.864 52.7069 232.865 52.7069C232.782 52.5034 232.699 52.299 232.616 52.0955C232.411 53.0117 232.168 53.8977 231.864 54.7846C231.639 55.4454 232.685 55.7286 232.908 55.0721C233.211 54.1853 233.454 53.2975 233.661 52.3847C233.708 52.1743 233.635 51.8694 233.412 51.7733C233.411 51.7733 233.41 51.7724 233.409 51.7724C233.493 51.9759 233.576 52.1803 233.658 52.3839C233.675 52.2886 233.69 52.1933 233.7 52.0963C233.77 51.4944 232.748 51.3533 232.637 51.9526C232.628 52.0002 232.62 52.0478 232.611 52.0946C232.833 51.9682 233.054 51.8426 233.277 51.7161C231.405 50.9531 229.288 50.8691 227.295 50.799C224.797 50.7115 222.304 50.7115 219.807 50.8094C219.512 50.8206 219.269 51.0484 219.266 51.3507C219.208 56.586 219.031 61.8438 218.387 67.0436C218.111 69.2641 217.756 71.5063 217.092 73.6472C216.3 76.2004 214.943 78.6184 213.422 80.8034C213.162 81.1759 213.598 81.7648 214.033 81.5985C216.43 80.6831 218.73 79.442 220.541 77.5947C222.331 75.7673 223.649 73.4281 224.952 71.25C228.019 66.1238 230.919 60.7188 232.908 55.0721C233.14 54.4148 232.095 54.1307 231.864 54.7846Z" fill="#151B32"/>
<path d="M179.321 36.4984C175.227 29.337 171.281 22.0942 167.481 14.7725C167.16 14.1542 166.225 14.7007 166.547 15.319C170.345 22.6407 174.293 29.8843 178.387 37.0449C178.732 37.6494 179.667 37.1046 179.321 36.4984Z" fill="#151B32"/>
<path d="M186.816 36.1209C186.116 31.4131 185.415 26.7043 184.716 21.9964C184.616 21.3278 184.517 20.6593 184.418 19.9907C184.316 19.3039 183.273 19.5957 183.374 20.2782C184.074 24.9861 184.775 29.6948 185.474 34.4027C185.574 35.0713 185.673 35.7399 185.772 36.4085C185.874 37.0952 186.917 36.8034 186.816 36.1209Z" fill="#151B32"/>
<path d="M195.145 36.0768C195.43 28.0337 195.994 20.0036 196.837 12.0004C196.91 11.3085 195.827 11.3137 195.754 12.0004C194.912 20.0045 194.347 28.0337 194.063 36.0768C194.039 36.7731 195.121 36.7722 195.145 36.0768Z" fill="#151B32"/>
<path d="M202.973 36.5869C203.848 32.1345 204.724 27.6821 205.598 23.2297C205.732 22.549 204.689 22.258 204.555 22.9422C203.68 27.3946 202.805 31.8469 201.93 36.2993C201.796 36.98 202.839 37.271 202.973 36.5869Z" fill="#151B32"/>
<path d="M211.638 37.414C213.805 31.0485 216.098 24.7272 218.516 18.4526C218.767 17.8022 217.72 17.5207 217.472 18.1651C215.054 24.4396 212.761 30.761 210.594 37.1265C210.369 37.7873 211.414 38.0705 211.638 37.414Z" fill="#151B32"/>
<path d="M217.748 37.5431C219.464 34.9267 221.18 32.3104 222.895 29.694C223.143 29.3164 223.391 28.938 223.639 28.5604C224.022 27.9758 223.085 27.4328 222.704 28.0139C220.988 30.6302 219.272 33.2466 217.556 35.8629C217.309 36.2405 217.061 36.619 216.813 36.9966C216.429 37.5812 217.367 38.1242 217.748 37.5431Z" fill="#151B32"/>
<path d="M171.272 37.3101C169.133 35.0488 166.994 32.7876 164.855 30.5263C164.375 30.0188 163.61 30.7852 164.089 31.2919C166.228 33.5531 168.368 35.8144 170.507 38.0757C170.987 38.5823 171.751 37.8159 171.272 37.3101Z" fill="#151B32"/>
<path d="M155.163 51.7397C156.146 51.5683 157.853 53.0611 159.417 55.3226C160.981 57.5841 163.104 59.2097 162.998 60.5489C162.998 60.5489 163.13 62.6261 162.077 63.3576C161.024 64.0892 159.16 65.6972 157.95 64.8795C157.336 64.465 157.233 63.352 157.92 62.1038C157.22 63.0188 156.287 62.783 155.861 62.2398C155.231 61.4374 155.816 60.4556 156.447 58.9079C156.177 59.3417 155.977 59.8407 155.624 60.0314C155.301 60.2053 154.828 60.1015 154.473 59.86C153.726 59.353 153.784 58.2263 154.136 57.0819C153.898 57.1519 153.387 57.0899 153.081 56.9394C151.439 56.1322 153.306 52.064 155.163 51.7397Z" fill="#D3D8EA"/>
<path d="M161.08 58.2059C160.284 59.1709 159.477 60.1277 158.643 61.0597C158.132 61.6311 157.509 62.1172 157.238 62.8479C157.007 63.4708 156.892 64.2539 157.287 64.8374C157.749 65.5214 158.637 65.6406 159.379 65.4168C159.978 65.2357 160.552 64.8881 161.018 64.472C161.309 64.2129 160.881 63.7871 160.592 64.0455C159.959 64.6104 158.397 65.4981 157.77 64.4752C157.493 64.0213 157.665 63.3952 157.848 62.9373C157.903 62.798 157.952 62.7023 158.052 62.5952C158.423 62.1985 158.792 61.7993 159.154 61.3937C159.959 60.4907 160.738 59.5668 161.507 58.6341C161.752 58.3355 161.328 57.9057 161.08 58.2059Z" fill="#151B32"/>
<path d="M158.72 55.5444C158.029 56.2196 157.398 56.9544 156.839 57.7423C156.38 58.3902 155.911 59.0871 155.605 59.8235C155.19 60.8255 155.032 62.9976 156.604 62.9598C157.035 62.9493 157.481 62.7996 157.86 62.5976C158.203 62.4149 157.899 61.8934 157.556 62.0761C157.239 62.2451 156.823 62.3988 156.46 62.3529C156.112 62.3087 156.025 62.0326 155.97 61.7188C155.891 61.2721 155.93 60.8069 156.053 60.3724C156.245 59.6883 156.701 59.0251 157.105 58.4183C157.697 57.5306 158.384 56.7154 159.147 55.971C159.426 55.6997 158.998 55.2724 158.72 55.5444Z" fill="#151B32"/>
<path d="M156.545 53.0191C155.366 54.2431 154.369 55.7449 153.845 57.3714C153.586 58.1762 153.308 59.323 153.83 60.0795C154.241 60.6758 154.994 60.6758 155.634 60.5374C156.013 60.4553 155.852 59.8735 155.473 59.9555C155.081 60.04 154.546 60.1012 154.303 59.702C154.108 59.3801 154.137 58.931 154.183 58.5737C154.289 57.7448 154.615 56.9521 154.992 56.2149C155.513 55.1976 156.18 54.2689 156.972 53.4464C157.241 53.1655 156.815 52.7382 156.545 53.0191Z" fill="#151B32"/>
<path d="M154.131 56.5723C154.043 56.6568 153.969 56.7034 153.865 56.7332C153.75 56.7662 153.653 56.767 153.51 56.7565C153.298 56.7404 153.076 56.627 152.919 56.4531C152.515 56.0065 152.688 55.2773 152.814 54.7413C152.852 54.5828 152.764 54.4146 152.603 54.3703C152.45 54.3285 152.27 54.4219 152.232 54.5812C152.047 55.3635 151.901 56.3059 152.542 56.932C153.08 57.4575 154.001 57.534 154.556 56.9996C154.838 56.73 154.411 56.3035 154.131 56.5723Z" fill="#151B32"/>
<path d="M231.351 53.4311C230.364 53.2839 228.695 54.8194 227.187 57.1195C225.68 59.4196 223.599 61.0976 223.737 62.4335C223.737 62.4335 223.657 64.5131 224.729 65.2181C225.799 65.9231 227.703 67.4844 228.893 66.6369C229.496 66.2072 229.572 65.0917 228.853 63.8612C229.576 64.7586 230.502 64.4994 230.915 63.9457C231.525 63.128 230.915 62.1607 230.245 60.63C230.784 61.4484 231.514 62.0545 232.243 61.5321C232.976 61.0066 232.891 59.8815 232.51 58.7468C232.75 58.8104 233.259 58.7363 233.561 58.5778C235.184 57.7295 233.215 53.7088 231.351 53.4311Z" fill="#D3D8EA"/>
<path d="M225.172 60.4754C226.36 61.8459 227.572 63.198 228.856 64.4816C229.131 64.7568 229.558 64.3295 229.282 64.0551C227.999 62.7722 226.787 61.4194 225.598 60.0488C225.344 59.7551 224.918 60.1832 225.172 60.4754Z" fill="#151B32"/>
<path d="M227.465 57.7564C228.692 58.892 229.721 60.2158 230.518 61.6846C230.703 62.0258 231.225 61.7216 231.04 61.3796C230.22 59.869 229.153 58.4968 227.892 57.3291C227.607 57.0659 227.18 57.4916 227.465 57.7564Z" fill="#151B32"/>
<path d="M229.578 55.1768C230.668 56.248 231.545 57.5316 232.133 58.9432C232.196 59.0937 232.332 59.2007 232.504 59.1541C232.645 59.1154 232.777 58.9344 232.715 58.7831C232.085 57.2717 231.173 55.8987 230.005 54.7503C229.728 54.4774 229.301 54.904 229.578 55.1768Z" fill="#151B32"/>
</g>
</svg>
